<mxfile host="app.diagrams.net" agent="Mozilla/5.0 (Macintosh; Intel Mac OS X 10_15_7) AppleWebKit/537.36 (KHTML, like Gecko) Chrome/127.0.0.0 Safari/537.36" version="24.7.6">
  <diagram name="Page-1" id="nzkrRN54y5VCIT37Kl1h">
    <mxGraphModel dx="954" dy="515" grid="1" gridSize="10" guides="1" tooltips="1" connect="1" arrows="1" fold="1" page="1" pageScale="1" pageWidth="827" pageHeight="1169" math="0" shadow="0">
      <root>
        <mxCell id="0" />
        <mxCell id="1" parent="0" />
        <mxCell id="bEMak3Zr10kOjS_cwaZi-95" value="" style="whiteSpace=wrap;html=1;aspect=fixed;fillColor=#dae8fc;strokeColor=#6c8ebf;" parent="1" vertex="1">
          <mxGeometry x="55" y="50" width="340" height="340" as="geometry" />
        </mxCell>
        <mxCell id="GaZP4T5ZPqoBLnIEV3xV-1" value="" style="whiteSpace=wrap;html=1;aspect=fixed;fillColor=#dae8fc;strokeColor=#6c8ebf;gradientColor=#7ea6e0;" vertex="1" parent="1">
          <mxGeometry x="80" y="80" width="300" height="300" as="geometry" />
        </mxCell>
        <mxCell id="bEMak3Zr10kOjS_cwaZi-98" value="Data Center 1" style="text;html=1;align=center;verticalAlign=middle;whiteSpace=wrap;rounded=0;fontStyle=1;fontSize=15;" parent="1" vertex="1">
          <mxGeometry x="175" y="50" width="100" height="30" as="geometry" />
        </mxCell>
        <mxCell id="bEMak3Zr10kOjS_cwaZi-101" value="" style="whiteSpace=wrap;html=1;aspect=fixed;fillColor=#bac8d3;strokeColor=#23445d;" parent="1" vertex="1">
          <mxGeometry x="160" y="90" width="130" height="130" as="geometry" />
        </mxCell>
        <mxCell id="bEMak3Zr10kOjS_cwaZi-102" value="" style="whiteSpace=wrap;html=1;aspect=fixed;fillColor=#bac8d3;strokeColor=#23445d;" parent="1" vertex="1">
          <mxGeometry x="160" y="240" width="130" height="130" as="geometry" />
        </mxCell>
        <mxCell id="bEMak3Zr10kOjS_cwaZi-108" value="" style="rounded=1;whiteSpace=wrap;html=1;fillColor=#b1ddf0;strokeColor=#10739e;" parent="1" vertex="1">
          <mxGeometry x="165" y="135" width="120" height="80" as="geometry" />
        </mxCell>
        <mxCell id="bEMak3Zr10kOjS_cwaZi-109" value="Topic A" style="text;html=1;align=center;verticalAlign=middle;whiteSpace=wrap;rounded=0;" parent="1" vertex="1">
          <mxGeometry x="175" y="135" width="100" height="30" as="geometry" />
        </mxCell>
        <mxCell id="bEMak3Zr10kOjS_cwaZi-110" value="Partition 0" style="rounded=1;whiteSpace=wrap;html=1;fillColor=#b0e3e6;strokeColor=#0e8088;" parent="1" vertex="1">
          <mxGeometry x="185" y="170" width="80" height="30" as="geometry" />
        </mxCell>
        <mxCell id="bEMak3Zr10kOjS_cwaZi-111" value="Broker 1" style="text;html=1;align=center;verticalAlign=middle;whiteSpace=wrap;rounded=0;" parent="1" vertex="1">
          <mxGeometry x="175" y="100" width="100" height="30" as="geometry" />
        </mxCell>
        <mxCell id="bEMak3Zr10kOjS_cwaZi-113" value="Broker 2" style="text;html=1;align=center;verticalAlign=middle;whiteSpace=wrap;rounded=0;" parent="1" vertex="1">
          <mxGeometry x="175" y="250" width="100" height="30" as="geometry" />
        </mxCell>
        <mxCell id="bEMak3Zr10kOjS_cwaZi-115" value="" style="whiteSpace=wrap;html=1;aspect=fixed;fillColor=#dae8fc;strokeColor=#6c8ebf;" parent="1" vertex="1">
          <mxGeometry x="430" y="50" width="340" height="340" as="geometry" />
        </mxCell>
        <mxCell id="bEMak3Zr10kOjS_cwaZi-116" value="Data Center 2" style="text;html=1;align=center;verticalAlign=middle;whiteSpace=wrap;rounded=0;fontStyle=1;fontSize=15;" parent="1" vertex="1">
          <mxGeometry x="550" y="50" width="100" height="30" as="geometry" />
        </mxCell>
        <mxCell id="GaZP4T5ZPqoBLnIEV3xV-5" value="" style="whiteSpace=wrap;html=1;aspect=fixed;fillColor=#dae8fc;strokeColor=#6c8ebf;gradientColor=#7ea6e0;" vertex="1" parent="1">
          <mxGeometry x="450" y="80" width="300" height="300" as="geometry" />
        </mxCell>
        <mxCell id="bEMak3Zr10kOjS_cwaZi-117" value="" style="whiteSpace=wrap;html=1;aspect=fixed;fillColor=#bac8d3;strokeColor=#23445d;" parent="1" vertex="1">
          <mxGeometry x="535" y="90" width="130" height="130" as="geometry" />
        </mxCell>
        <mxCell id="bEMak3Zr10kOjS_cwaZi-118" value="" style="whiteSpace=wrap;html=1;aspect=fixed;fillColor=#bac8d3;strokeColor=#23445d;" parent="1" vertex="1">
          <mxGeometry x="535" y="240" width="130" height="130" as="geometry" />
        </mxCell>
        <mxCell id="bEMak3Zr10kOjS_cwaZi-119" value="" style="rounded=1;whiteSpace=wrap;html=1;fillColor=#b1ddf0;strokeColor=#10739e;" parent="1" vertex="1">
          <mxGeometry x="540" y="280" width="120" height="80" as="geometry" />
        </mxCell>
        <mxCell id="bEMak3Zr10kOjS_cwaZi-120" value="Topic A" style="text;html=1;align=center;verticalAlign=middle;whiteSpace=wrap;rounded=0;" parent="1" vertex="1">
          <mxGeometry x="550" y="280" width="100" height="30" as="geometry" />
        </mxCell>
        <mxCell id="bEMak3Zr10kOjS_cwaZi-121" value="Partition 0" style="rounded=1;whiteSpace=wrap;html=1;fillColor=#b0e3e6;strokeColor=#0e8088;" parent="1" vertex="1">
          <mxGeometry x="560" y="315" width="80" height="30" as="geometry" />
        </mxCell>
        <mxCell id="bEMak3Zr10kOjS_cwaZi-122" value="Broker 3" style="text;html=1;align=center;verticalAlign=middle;whiteSpace=wrap;rounded=0;" parent="1" vertex="1">
          <mxGeometry x="550" y="100" width="100" height="30" as="geometry" />
        </mxCell>
        <mxCell id="bEMak3Zr10kOjS_cwaZi-123" value="Broker 4" style="text;html=1;align=center;verticalAlign=middle;whiteSpace=wrap;rounded=0;" parent="1" vertex="1">
          <mxGeometry x="550" y="250" width="100" height="30" as="geometry" />
        </mxCell>
        <mxCell id="bEMak3Zr10kOjS_cwaZi-124" value="" style="whiteSpace=wrap;html=1;aspect=fixed;fillColor=#dae8fc;strokeColor=#6c8ebf;" parent="1" vertex="1">
          <mxGeometry x="800" y="50" width="340" height="340" as="geometry" />
        </mxCell>
        <mxCell id="bEMak3Zr10kOjS_cwaZi-125" value="Data Center 3" style="text;html=1;align=center;verticalAlign=middle;whiteSpace=wrap;rounded=0;fontStyle=1;fontSize=15;" parent="1" vertex="1">
          <mxGeometry x="920" y="50" width="100" height="30" as="geometry" />
        </mxCell>
        <mxCell id="GaZP4T5ZPqoBLnIEV3xV-7" value="" style="whiteSpace=wrap;html=1;aspect=fixed;fillColor=#dae8fc;strokeColor=#6c8ebf;gradientColor=#7ea6e0;" vertex="1" parent="1">
          <mxGeometry x="820" y="80" width="300" height="300" as="geometry" />
        </mxCell>
        <mxCell id="bEMak3Zr10kOjS_cwaZi-126" value="" style="whiteSpace=wrap;html=1;aspect=fixed;fillColor=#bac8d3;strokeColor=#23445d;" parent="1" vertex="1">
          <mxGeometry x="905" y="90" width="130" height="130" as="geometry" />
        </mxCell>
        <mxCell id="bEMak3Zr10kOjS_cwaZi-127" value="" style="whiteSpace=wrap;html=1;aspect=fixed;fillColor=#bac8d3;strokeColor=#23445d;" parent="1" vertex="1">
          <mxGeometry x="905" y="240" width="130" height="130" as="geometry" />
        </mxCell>
        <mxCell id="bEMak3Zr10kOjS_cwaZi-128" value="" style="rounded=1;whiteSpace=wrap;html=1;fillColor=#b1ddf0;strokeColor=#10739e;" parent="1" vertex="1">
          <mxGeometry x="910" y="130" width="120" height="80" as="geometry" />
        </mxCell>
        <mxCell id="bEMak3Zr10kOjS_cwaZi-129" value="Topic A" style="text;html=1;align=center;verticalAlign=middle;whiteSpace=wrap;rounded=0;" parent="1" vertex="1">
          <mxGeometry x="920" y="135" width="100" height="30" as="geometry" />
        </mxCell>
        <mxCell id="bEMak3Zr10kOjS_cwaZi-130" value="Partition 0" style="rounded=1;whiteSpace=wrap;html=1;fillColor=#b0e3e6;strokeColor=#0e8088;" parent="1" vertex="1">
          <mxGeometry x="930" y="170" width="80" height="30" as="geometry" />
        </mxCell>
        <mxCell id="bEMak3Zr10kOjS_cwaZi-131" value="Broker 5" style="text;html=1;align=center;verticalAlign=middle;whiteSpace=wrap;rounded=0;" parent="1" vertex="1">
          <mxGeometry x="920" y="100" width="100" height="30" as="geometry" />
        </mxCell>
        <mxCell id="bEMak3Zr10kOjS_cwaZi-132" value="Broker 6" style="text;html=1;align=center;verticalAlign=middle;whiteSpace=wrap;rounded=0;" parent="1" vertex="1">
          <mxGeometry x="920" y="250" width="100" height="30" as="geometry" />
        </mxCell>
        <mxCell id="GaZP4T5ZPqoBLnIEV3xV-2" value="Rack 1" style="text;html=1;align=center;verticalAlign=middle;whiteSpace=wrap;rounded=0;fontStyle=1;fontSize=15;" vertex="1" parent="1">
          <mxGeometry x="90" y="165" width="60" height="130" as="geometry" />
        </mxCell>
        <mxCell id="GaZP4T5ZPqoBLnIEV3xV-6" value="Rack 2" style="text;html=1;align=center;verticalAlign=middle;whiteSpace=wrap;rounded=0;fontStyle=1;fontSize=15;" vertex="1" parent="1">
          <mxGeometry x="460" y="165" width="60" height="130" as="geometry" />
        </mxCell>
        <mxCell id="GaZP4T5ZPqoBLnIEV3xV-8" value="Rack 3" style="text;html=1;align=center;verticalAlign=middle;whiteSpace=wrap;rounded=0;fontStyle=1;fontSize=15;" vertex="1" parent="1">
          <mxGeometry x="830" y="165" width="60" height="130" as="geometry" />
        </mxCell>
      </root>
    </mxGraphModel>
  </diagram>
</mxfile>
